<svg width="20" height="20" viewBox="0 0 20 20" fill="none" xmlns="http://www.w3.org/2000/svg">
<mask id="mask0_3_1546" style="mask-type:alpha" maskUnits="userSpaceOnUse" x="0" y="0" width="20" height="20">
<rect width="20" height="20" transform="matrix(-1 0 0 1 20 0)" fill="#D9D9D9"/>
</mask>
<g mask="url(#mask0_3_1546)">
<path d="M16.637 17.9004C16.9889 17.9004 17.2855 17.7798 17.5268 17.5386C17.768 17.2973 17.8887 16.9968 17.8887 16.6369V13.1794C17.8887 12.834 17.7928 12.5471 17.6012 12.3188C17.4094 12.0906 17.1338 11.9252 16.7745 11.8225L14.2176 11.2744C13.9054 11.2152 13.6093 11.2247 13.3293 11.3029C13.0494 11.3811 12.8038 11.522 12.5924 11.7254L10.5518 13.7311C10.1339 13.4883 9.72805 13.2103 9.3343 12.8971C8.94069 12.5841 8.54819 12.2319 8.1568 11.8407C7.72985 11.4276 7.34895 11.0129 7.01409 10.5965C6.67937 10.1801 6.38881 9.75815 6.14242 9.33065L8.23388 7.38315C8.43916 7.20134 8.57638 6.99093 8.64555 6.7519C8.71471 6.51273 8.71971 6.22315 8.66055 5.88315L8.13055 3.21378C8.05569 2.86836 7.89478 2.59635 7.64784 2.39773C7.40076 2.19898 7.08971 2.09961 6.71471 2.09961H3.35159C2.99173 2.09961 2.69312 2.22023 2.45576 2.46148C2.21839 2.70273 2.09971 3.00329 2.09971 3.36315C2.09971 5.14648 2.48798 6.91086 3.2645 8.65628C4.04117 10.4017 5.14749 11.9925 6.58346 13.4286C8.01943 14.8566 9.60819 15.959 11.3497 16.7357C13.0912 17.5122 14.8537 17.9004 16.637 17.9004Z" fill="white"/>
</g>
</svg>
