<svg width="21" height="23" viewBox="0 0 21 23" fill="none" xmlns="http://www.w3.org/2000/svg">
<path d="M5.75 0V2.76098H8.625V2.84381C3.7375 3.50644 0 7.56508 0 12.4244C0 17.7531 4.51375 22.0878 10.0625 22.0878C15.6112 22.0878 20.125 17.7531 20.125 12.4244C20.125 11.182 19.8375 10.0223 19.4062 8.97318L16.79 10.0223C17.1062 10.823 17.25 11.5961 17.25 12.452C17.25 16.2898 14.0587 19.3545 10.0625 19.3545C6.06625 19.3545 2.875 16.2898 2.875 12.452C2.875 8.61425 6.06625 5.54956 10.0625 5.54956C10.925 5.54956 11.7587 5.68761 12.5925 5.99132L13.57 3.396C12.9087 3.17512 12.2187 3.06468 11.5 2.95425V2.78859H14.375V0.0276098H5.75V0ZM20.125 3.20273C20.125 3.20273 9.63125 10.9611 9.085 11.4857C8.53875 12.0379 8.53875 12.8385 9.085 13.3907C9.63125 13.9429 10.4937 13.9429 11.0687 13.3907C11.6437 12.8385 20.1537 3.20273 20.1537 3.20273H20.125Z" fill="black"/>
</svg>
